<svg width="118" height="34" viewBox="0 0 118 34" fill="none" xmlns="http://www.w3.org/2000/svg">
<g clip-path="url(#clip0_5006_4)">
<path fill-rule="evenodd" clip-rule="evenodd" d="M117.995 19.862C117.982 19.7285 117.951 19.5975 117.902 19.4727C117.588 18.655 116.162 19.4175 115.675 19.6223C114.799 19.9912 113.796 20.4774 112.826 20.1986C112.557 20.1213 112.636 19.8918 112.826 19.7745C112.921 19.7167 115.413 18.3014 116.146 15.1649C117.32 10.1472 113.718 8.75151 112.297 8.58236C110.853 8.41066 109.241 8.63421 108.562 8.90876C106.637 9.68483 106.135 11.4104 106.002 12.444C105.82 13.8652 105.799 16.3455 105.623 17.4616C105.508 18.1969 104.963 19.3129 103.889 19.2067C101.817 19.0018 100.865 18.2037 100.931 16.8929C100.977 15.9715 100.964 15.7879 101.253 13.7445C101.501 11.9935 101.658 11.5761 101.658 11.1757C101.658 10.0291 100.122 9.79788 99.6091 10.3138C99.2127 10.7125 99.1136 11.526 99.0146 12.8996C98.9214 14.1907 98.7241 15.8704 98.4692 16.8946C98.0729 18.4901 97.9137 18.6066 97.5521 19.063C96.8009 20.0116 95.4129 19.7175 94.7354 19.0707C94.3374 18.6899 94.2832 18.3524 94.3603 17.2346C94.4373 16.1169 94.6194 14.1695 94.8752 12.1388C95.0979 10.3623 94.9446 10.0954 94.4009 9.59728C93.8954 9.13317 91.9586 9.20202 91.0618 9.20202C89.6738 9.20202 89.7568 9.86503 89.6654 12.1261C89.6256 13.1129 89.5798 14.6107 89.4816 15.7701C89.3224 17.6571 85.7343 19.0766 84.0846 18.9916C82.3749 18.9032 82.2106 15.6995 82.103 14.9541C81.9938 14.2094 81.9506 7.77995 82.1352 7.56149C82.2665 7.40849 83.2954 7.29119 84.4683 7.06084C87.0655 6.55083 87.439 6.21592 87.4424 5.39991C87.4441 4.99955 87.4187 4.4394 86.9766 4.28894C86.7175 4.20054 86.0451 4.10024 85.1534 3.99484C82.5815 3.69053 82.219 3.78404 82.2046 3.45678C82.1801 2.88387 82.2343 1.78141 82.1886 1.34705C82.0768 0.279432 80.8302 -0.0792735 79.4261 0.0142279C79.1492 0.0320782 78.7656 0.12218 78.7351 0.494485C78.7046 0.867641 78.7072 1.15495 78.6623 1.78651C78.5632 3.18988 78.5353 3.34203 77.9933 3.33948C77.5106 3.33693 73.4948 2.98077 72.7233 3.22898C71.951 3.47718 71.9824 4.00504 71.9205 4.26939C71.8587 4.5329 71.9967 6.11647 72.0747 6.79988C72.1517 7.48244 72.3008 8.41151 72.3931 8.55091C72.4862 8.69116 72.7758 9.08727 73.5821 8.98612C76.3208 8.64186 78.1474 8.2262 78.5183 8.13355C78.8884 8.04005 78.9307 7.9933 78.935 8.28825C78.9367 8.45571 79.0061 11.8124 79.018 12.8095C79.0374 14.5146 79.3245 19.454 74.7465 20.2199C72.8419 20.5386 71.0567 19.9819 70.2446 19.0834C69.7839 18.5734 70.01 18.5071 70.2133 18.1756C70.5215 17.6715 73.0943 14.6379 70.9382 11.4911C69.6671 9.63468 66.6184 9.48762 65.5116 9.96958C64.6537 10.3427 63.9602 11.4996 63.8264 12.9106C63.4131 17.2627 65.8944 19.9547 65.9909 20.1204C66.1061 20.3193 65.6725 20.9602 64.1566 21.183C62.1242 21.4822 59.0036 19.0214 59.084 18.7009C59.1238 18.5479 60.5059 16.2758 60.5389 14.0802C60.5499 13.3331 60.3043 12.3496 59.7954 11.356C59.2856 10.3623 57.6816 8.82886 55.9456 9.16547C51.8604 9.95598 52.3262 14.0071 52.609 15.113C53.1967 17.3995 54.5729 19.4175 54.7973 19.8212C55.103 20.3695 46.1535 23.9344 45.8071 20.5973C45.4625 17.289 50.3556 10.1557 49.9702 7.38809C49.623 4.895 47.9531 4.37309 46.5007 4.34759C45.089 4.32209 44.7164 4.5482 44.2388 4.827C43.9636 4.98765 43.5681 5.30556 43.0193 4.78025C42.6543 4.4309 42.413 4.18609 42.0268 3.87584C41.8312 3.71858 41.5179 3.51883 40.9928 3.44148C40.4678 3.36413 39.7886 3.44148 39.3567 3.62763C38.9248 3.81464 38.5844 4.14019 38.2296 4.45045C37.8739 4.7607 36.9737 5.77562 36.1345 5.40161C35.7703 5.23926 34.5365 4.6196 33.6473 4.23284C31.929 3.48483 29.4511 4.6961 28.5594 6.29072C27.2307 8.66396 24.6097 17.9869 24.2134 19.216C23.3225 21.9769 25.3397 24.2277 28.0623 24.0985C29.2123 24.0432 29.9787 23.6208 30.7053 22.2914C31.1254 21.5238 35.0717 11.1587 35.3647 10.6623C35.5781 10.3011 36.2877 9.82593 36.889 10.1353C37.492 10.4464 37.6114 11.0941 37.5224 11.7036C37.3785 12.6896 34.5957 19.0137 34.489 19.7286C34.307 20.9458 34.882 21.6224 36.1378 21.6887C36.9982 21.7338 37.8561 21.4227 38.537 20.1315C38.918 19.4098 43.3056 10.5705 43.6943 9.98063C44.1211 9.33292 44.4649 9.11957 44.8985 9.14252C45.2364 9.15952 45.7758 9.24707 45.6403 10.2637C45.5082 11.2599 41.9802 17.7463 41.6093 19.3342C41.0479 21.7431 42.584 24.9834 46.6989 25.1321C48.7432 25.2069 53.4753 24.311 56.1412 22.2786C57.1092 21.5408 56.8534 21.4771 57.4564 22.0143C58.3244 22.7869 59.9351 23.8749 61.5212 23.8749C65.1229 23.8749 67.7532 21.6139 67.8726 21.5323C67.8913 21.5194 67.9141 21.5138 67.9367 21.5164C67.9593 21.5191 67.9801 21.5299 67.9954 21.5468C68.2139 21.7848 70.447 23.0351 72.012 23.087C75.7373 23.2102 77.9433 21.132 78.7766 20.1536C79.2349 19.6153 79.6624 19.0514 80.057 18.4646C80.0683 18.4479 80.0832 18.4339 80.1006 18.4238C80.118 18.4137 80.1374 18.4077 80.1575 18.4062C80.1776 18.4048 80.1977 18.4079 80.2164 18.4153C80.2351 18.4228 80.2518 18.4344 80.2654 18.4493C80.4881 18.6958 82.1682 21.8001 85.5057 21.3717C87.367 21.1328 90.1354 19.5535 90.3293 19.3401C90.3392 19.3289 90.3518 19.3205 90.366 19.3157C90.3801 19.311 90.3953 19.3101 90.4099 19.3131C90.4245 19.3161 90.438 19.323 90.4492 19.3329C90.4603 19.3429 90.4686 19.3556 90.4733 19.3699C90.5707 19.6402 90.9966 21.1634 92.703 22.3747C94.102 23.3683 96.795 23.5672 97.9899 22.9068C98.9807 22.3594 99.3779 22.0092 100.071 21.3122C100.37 21.0121 100.823 20.7086 101.641 20.8829C102.556 21.0776 104.973 21.5077 105.127 21.5816C105.301 21.6641 105.328 21.9811 105.276 22.3126C105.193 22.8345 104.997 24.6638 104.797 26.3714C104.596 28.0791 103.955 33.7767 105.474 33.9875C106.392 34.115 107.189 33.2412 107.4 32.3887C107.928 30.2492 108.025 27.8411 108.372 25.7756C108.787 23.3165 108.951 22.6271 109.101 22.3526C109.224 22.1248 109.224 22.1783 110.936 22.3245C112.121 22.4265 113.083 22.5923 114.512 22.3917C115.696 22.2251 118.125 21.3241 117.995 19.862ZM58.8029 14.3352C58.7461 15.1402 58.5403 15.6502 58.1161 16.3914C57.851 16.8538 57.5766 16.5079 57.4174 16.2792C57.1888 15.9511 56.0201 13.0968 56.9127 12.5077C57.1642 12.342 57.663 12.2468 58.0238 12.4499C58.3845 12.6522 58.6022 12.9472 58.7012 13.2761C58.8029 13.6102 58.8401 13.7972 58.8029 14.3352ZM69.8898 14.7501C69.7856 15.6766 69.3944 16.201 69.2504 16.3957C68.9955 16.7391 68.8931 16.8742 68.6492 16.6252C68.451 16.4229 67.71 14.9082 67.6033 13.9094C67.5449 13.3722 67.6931 12.6046 68.1419 12.4244C68.6144 12.2349 69.0929 12.3207 69.4291 12.7619C69.9567 13.4563 69.9643 14.0913 69.8898 14.7501ZM110.124 18.8106C109.568 19.0401 109.326 18.8998 109.358 17.9759C109.365 17.7769 110.258 13.1418 111.966 12.302C112.451 12.064 112.942 12.0742 113.282 12.455C113.926 13.175 113.756 14.2842 113.272 15.2958C112.571 16.7637 110.889 18.4952 110.124 18.8106Z" fill="#F64060"/>
</g>
<defs>
<clipPath id="clip0_5006_4">
<rect width="94" height="34" fill="white" transform="translate(24)"/>
</clipPath>
</defs>
</svg>
