<svg width="20" height="20" viewBox="0 0 20 20" fill="none" xmlns="http://www.w3.org/2000/svg">
<path fill-rule="evenodd" clip-rule="evenodd" d="M6 14.6393C5.99999 14.6393 6.00001 14.6394 6 14.6393C6.50493 14.8099 7.03396 14.9196 7.57555 14.9618C7.57554 14.9618 7.57556 14.9618 7.57555 14.9618C7.03396 14.9196 6.50493 14.8099 6 14.6393ZM8.47127 14.9697C8.47125 14.9697 8.47128 14.9697 8.47127 14.9697V14.9697ZM10.6821 19.7847C8.52992 19.2201 6.92867 17.6472 6.26651 15.7241C6.81631 15.8612 7.38579 15.937 7.96469 15.946C8.5799 17.1072 9.67243 18.0212 11.0647 18.3864C13.694 19.0761 16.3965 17.5485 17.101 14.9743L18.5042 9.84707C18.5746 9.58968 18.4186 9.32506 18.1556 9.25608L15.4773 8.55341C15.4657 8.03937 15.3977 7.51912 15.2688 7L18.5383 7.85776C19.59 8.13366 20.2141 9.19207 19.9324 10.2217L18.5292 15.3489C17.6133 18.6955 14.1 20.6814 10.6821 19.7847ZM9.65745 15.8012C9.41518 16.0385 9.04654 16.0766 8.76362 15.9156C9.07048 15.8875 9.37864 15.8403 9.68663 15.7732C9.67687 15.7824 9.66711 15.7918 9.65745 15.8012ZM12.0378 15.1767C11.8794 15.1352 11.7179 15.1094 11.5556 15.0993C12.1236 14.8043 12.6416 14.4417 13.1016 14.0249C13.5031 14.213 13.8708 14.467 14.188 14.7776C14.6774 15.2567 15.0294 15.8536 15.2085 16.5082C15.3141 16.8943 15.0801 17.2912 14.6857 17.3946C14.2914 17.4981 13.8859 17.269 13.7803 16.8828C13.6683 16.4737 13.4484 16.1007 13.1425 15.8012C12.8367 15.5018 12.4556 15.2864 12.0378 15.1767ZM13.9645 13.3841C13.9208 13.3413 13.8792 13.2966 13.8401 13.2502C14.191 12.8233 14.4915 12.359 14.7355 11.8669C14.8025 11.9453 14.8536 12.0389 14.8825 12.1441C14.9049 12.2259 14.9488 12.3005 15.01 12.3605C15.0712 12.4203 15.1473 12.4635 15.2309 12.4854C15.3145 12.5073 15.4025 12.5073 15.486 12.4854C15.5696 12.4635 15.6458 12.4203 15.707 12.3605C15.9957 12.0778 16.4638 12.0778 16.7525 12.3605C17.0412 12.6432 17.0412 13.1014 16.7525 13.3841C16.5078 13.6237 16.203 13.796 15.8688 13.8837C15.5345 13.9713 15.1825 13.9713 14.8483 13.8837C14.514 13.796 14.2092 13.6237 13.9645 13.3841Z" fill="#FFAD43"/>
<path fill-rule="evenodd" clip-rule="evenodd" d="M11.3629 2.41831L2.83539 4.59539C2.57375 4.66218 2.41848 4.91843 2.48858 5.16773L3.88494 10.133C4.58601 12.6259 7.2754 14.1053 9.89184 13.4373C12.5083 12.7694 14.061 10.2069 13.3599 7.714L11.9636 2.74876C11.8935 2.49946 11.6245 2.35152 11.3629 2.41831ZM2.45458 3.24123C1.40799 3.50843 0.786905 4.53339 1.06734 5.53057L2.46369 10.4958C3.37509 13.7366 6.87129 15.6599 10.2726 14.7915C13.6741 13.9231 15.6925 10.592 14.7812 7.35116L13.3848 2.38591C13.1044 1.38873 12.0287 0.796965 10.982 1.06416L2.45458 3.24123Z" fill="#FFAD43"/>
<path fill-rule="evenodd" clip-rule="evenodd" d="M4.89064 6.48066C4.82653 6.49725 4.76644 6.52587 4.71378 6.56488C4.66113 6.60389 4.61696 6.65253 4.58377 6.70804C4.55059 6.76354 4.52905 6.8248 4.52039 6.88834C4.51173 6.95188 4.51612 7.01644 4.53329 7.07834C4.64165 7.46885 4.40166 7.87024 3.99728 7.97487C3.59289 8.07951 3.17723 7.84777 3.06887 7.45726C3.00018 7.20966 2.98264 6.9514 3.0173 6.69724C3.05195 6.4431 3.13809 6.19802 3.27082 5.97602C3.40355 5.75402 3.58026 5.55944 3.79086 5.40338C4.00146 5.24733 4.24183 5.13286 4.49825 5.06651C4.75466 5.00017 5.02209 4.98324 5.28528 5.0167C5.54847 5.05016 5.80225 5.13335 6.03215 5.26153C6.26204 5.3897 6.46354 5.56034 6.62514 5.76371C6.78674 5.96708 6.90528 6.1992 6.97398 6.44682C7.08233 6.83732 6.84236 7.23871 6.43797 7.34335C6.03358 7.44798 5.61792 7.21624 5.50957 6.82574C5.49239 6.76383 5.46275 6.7058 5.42235 6.65495C5.38196 6.60411 5.33158 6.56145 5.27411 6.52941C5.21663 6.49737 5.15319 6.47657 5.08739 6.4682C5.0216 6.45984 4.95474 6.46407 4.89064 6.48066Z" fill="#FFAD43"/>
<path fill-rule="evenodd" clip-rule="evenodd" d="M9.89066 5.48066C9.76118 5.51416 9.6508 5.59595 9.58378 5.70804C9.51677 5.82013 9.49861 5.95333 9.5333 6.07835C9.64166 6.46885 9.40167 6.87025 8.99728 6.97487C8.59289 7.07951 8.17724 6.84777 8.06889 6.45726C7.93013 5.9572 8.00277 5.42437 8.27083 4.97603C8.53888 4.52767 8.9804 4.20051 9.49825 4.06651C10.0161 3.93253 10.5678 4.00267 11.0322 4.26153C11.4965 4.52038 11.8353 4.94675 11.9739 5.44682C12.0824 5.83732 11.8424 6.23871 11.438 6.34335C11.0336 6.44798 10.618 6.21624 10.5096 5.82574C10.4749 5.70072 10.3902 5.59413 10.2741 5.52941C10.1581 5.4647 10.0201 5.44716 9.89066 5.48066Z" fill="#FFAD43"/>
<path fill-rule="evenodd" clip-rule="evenodd" d="M5.1978 9.77675C5.46152 9.50299 5.88912 9.50299 6.15284 9.77675C6.48814 10.1247 6.90578 10.375 7.36379 10.5024C7.82182 10.6298 8.30407 10.6298 8.76209 10.5024C9.2201 10.375 9.63775 10.1247 9.97301 9.77675C10.3083 9.42868 10.5495 8.99516 10.6722 8.51974C10.7687 8.14578 11.139 7.92386 11.4992 8.02406C11.8595 8.12426 12.0734 8.50864 11.9768 8.88259C11.7927 9.59571 11.431 10.246 10.9281 10.768C10.4251 11.2901 9.79869 11.6656 9.11165 11.8566C8.42464 12.0478 7.70125 12.0478 7.01422 11.8566C6.32719 11.6656 5.70073 11.2901 5.1978 10.768C4.93407 10.4943 4.93407 10.0505 5.1978 9.77675Z" fill="#FFAD43"/>
</svg>
