<svg width="8" height="7" viewBox="0 0 8 7" fill="none" xmlns="http://www.w3.org/2000/svg">
<path fill-rule="evenodd" clip-rule="evenodd" d="M0.8 0C0.358172 0 0 0.391751 0 0.875V6.125C0 6.60826 0.358172 7 0.8 7H4.8C5.24184 7 5.6 6.60826 5.6 6.125V4.89427C5.6 4.85931 5.6356 4.83844 5.6622 4.85782L7.37812 6.10903C7.64396 6.30289 8 6.09446 8 5.74503V1.25498C8 0.905546 7.64396 0.697126 7.37812 0.890956L5.6622 2.14215C5.6356 2.16154 5.6 2.1407 5.6 2.10575V0.875C5.6 0.391751 5.24184 0 4.8 0H0.8Z" fill="#707070"/>
</svg>
