<svg width="20" height="20" viewBox="0 0 20 20" fill="none" xmlns="http://www.w3.org/2000/svg">
<path fill-rule="evenodd" clip-rule="evenodd" d="M13.9 4.625C14.5293 4.625 15.0786 4.29821 15.3725 3.8125H17.3C17.7695 3.8125 18.15 4.17627 18.15 4.625V6.35239C16.6836 6.71317 15.6 7.98566 15.6 9.5C15.6 11.0143 16.6836 12.2868 18.15 12.6476V14.375C18.15 14.8237 17.7695 15.1875 17.3 15.1875H15.3725C15.0786 14.7018 14.5293 14.375 13.9 14.375C13.2707 14.375 12.7214 14.7018 12.4275 15.1875H3.7C3.23056 15.1875 2.85 14.8237 2.85 14.375V12.6476C4.31645 12.2868 5.4 11.0143 5.4 9.5C5.4 7.98566 4.31645 6.71317 2.85 6.35239V4.625C2.85 4.17627 3.23056 3.8125 3.7 3.8125H12.4275C12.7214 4.29821 13.2707 4.625 13.9 4.625ZM16.45 9.5C16.45 8.15377 17.5916 7.0625 19 7.0625V4.625C19 3.72754 18.2389 3 17.3 3H14.75C14.75 3.44873 14.3695 3.8125 13.9 3.8125C13.4305 3.8125 13.05 3.44873 13.05 3H3.7C2.76112 3 2 3.72754 2 4.625V7.0625C3.40832 7.0625 4.55 8.15377 4.55 9.5C4.55 10.8462 3.40832 11.9375 2 11.9375V14.375C2 15.2725 2.76112 16 3.7 16H13.05C13.05 15.5513 13.4305 15.1875 13.9 15.1875C14.3695 15.1875 14.75 15.5513 14.75 16H17.3C18.2389 16 19 15.2725 19 14.375V11.9375C17.5916 11.9375 16.45 10.8462 16.45 9.5ZM13.9 7.0625C14.3695 7.0625 14.75 6.69874 14.75 6.25C14.75 5.80127 14.3695 5.4375 13.9 5.4375C13.4305 5.4375 13.05 5.80127 13.05 6.25C13.05 6.69874 13.4305 7.0625 13.9 7.0625ZM13.9 10.3125C14.3695 10.3125 14.75 9.94874 14.75 9.5C14.75 9.05126 14.3695 8.6875 13.9 8.6875C13.4305 8.6875 13.05 9.05126 13.05 9.5C13.05 9.94874 13.4305 10.3125 13.9 10.3125ZM14.75 12.75C14.75 13.1987 14.3695 13.5625 13.9 13.5625C13.4305 13.5625 13.05 13.1987 13.05 12.75C13.05 12.3013 13.4305 11.9375 13.9 11.9375C14.3695 11.9375 14.75 12.3013 14.75 12.75Z" fill="#707070"/>
</svg>
