<svg width="20" height="20" viewBox="0 0 20 20" fill="none" xmlns="http://www.w3.org/2000/svg">
<path fill-rule="evenodd" clip-rule="evenodd" d="M10.5 17.725C14.4902 17.725 17.725 14.4902 17.725 10.5C17.725 6.50974 14.4902 3.275 10.5 3.275C6.50974 3.275 3.275 6.50974 3.275 10.5C3.275 14.4902 6.50974 17.725 10.5 17.725ZM10.5 19C15.1944 19 19 15.1944 19 10.5C19 5.80558 15.1944 2 10.5 2C5.80558 2 2 5.80558 2 10.5C2 15.1944 5.80558 19 10.5 19Z" fill="#707070"/>
<path fill-rule="evenodd" clip-rule="evenodd" d="M14.821 7.17319C15.0597 7.4041 15.0597 7.7785 14.821 8.00942L9.16675 13.4805C8.45077 14.1731 7.28997 14.1732 6.57401 13.4805L4.17899 11.163C3.94034 10.9321 3.94034 10.5578 4.17899 10.3268C4.41764 10.0959 4.80458 10.0959 5.04323 10.3268L7.43825 12.6442C7.67691 12.8751 8.06381 12.8751 8.30247 12.6442L13.9568 7.17319C14.1955 6.94227 14.5823 6.94227 14.821 7.17319Z" fill="#707070"/>
</svg>
