<svg width="20" height="20" viewBox="0 0 20 20" fill="none" xmlns="http://www.w3.org/2000/svg">
<path fill-rule="evenodd" clip-rule="evenodd" d="M16.3333 4.23529H4.66667C4.43655 4.23529 4.25 4.41965 4.25 4.64706V15.3529C4.25 15.5803 4.43655 15.7647 4.66667 15.7647H16.3333C16.5634 15.7647 16.75 15.5803 16.75 15.3529V4.64706C16.75 4.41965 16.5634 4.23529 16.3333 4.23529ZM4.66667 3C3.74619 3 3 3.73741 3 4.64706V15.3529C3 16.2626 3.74619 17 4.66667 17H16.3333C17.2538 17 18 16.2626 18 15.3529V4.64706C18 3.73741 17.2538 3 16.3333 3H4.66667Z" fill="#707070"/>
<path d="M5 3C5 2.44772 5.44772 2 6 2C6.55228 2 7 2.44772 7 3V4C7 4.55228 6.55228 5 6 5C5.44772 5 5 4.55228 5 4V3Z" fill="#707070"/>
<path d="M13 3C13 2.44772 13.4477 2 14 2C14.5523 2 15 2.44772 15 3V4C15 4.55228 14.5523 5 14 5C13.4477 5 13 4.55228 13 4V3Z" fill="#707070"/>
<path fill-rule="evenodd" clip-rule="evenodd" d="M15 7.5C15 7.77614 14.7202 8 14.375 8H5.625C5.27983 8 5 7.77614 5 7.5C5 7.22386 5.27983 7 5.625 7H14.375C14.7202 7 15 7.22386 15 7.5Z" fill="#707070"/>
</svg>
