<svg width="18" height="18" viewBox="0 0 18 18" fill="none" xmlns="http://www.w3.org/2000/svg">
<g clip-path="url(#clip0_2_5950)">
<g clip-path="url(#clip1_2_5950)">
<g clip-path="url(#clip2_2_5950)">
<mask id="mask0_2_5950" style="mask-type:luminance" maskUnits="userSpaceOnUse" x="0" y="0" width="18" height="18">
<path d="M0 18L18 18L18 0L0 0L0 18Z" fill="white"/>
</mask>
<g mask="url(#mask0_2_5950)">
<path d="M0 17.2558C-1.72549e-08 17.4531 0.0784034 17.6425 0.217963 17.782C0.357523 17.9216 0.546808 18 0.744175 18H5.58131C5.72847 18 5.87231 17.9563 5.99467 17.8746C6.11702 17.7927 6.21237 17.6765 6.26869 17.5406C6.325 17.4046 6.33974 17.255 6.31104 17.1106C6.28234 16.9663 6.21149 16.8336 6.10744 16.7295L4.47845 15.0974C4.46112 15.0802 4.44737 15.0596 4.43799 15.037C4.42862 15.0144 4.42378 14.9902 4.42378 14.9657C4.42378 14.9413 4.42862 14.917 4.43799 14.8944C4.44737 14.8718 4.46112 14.8513 4.47845 14.834L7.72751 11.5884C7.90199 11.4138 8 11.1772 8 10.9305C8 10.6837 7.90199 10.447 7.72751 10.2725C7.55304 10.098 7.3164 10 7.06966 10C6.82292 10 6.58629 10.098 6.41181 10.2725L3.16274 13.5218C3.14546 13.5392 3.12493 13.553 3.10233 13.5623C3.07972 13.5717 3.05549 13.5765 3.03103 13.5765C3.00656 13.5765 2.98232 13.5717 2.95972 13.5623C2.93712 13.553 2.91659 13.5392 2.89931 13.5218L1.27031 11.8927C1.20128 11.8235 1.11929 11.7685 1.02901 11.731C0.938735 11.6935 0.841946 11.674 0.744176 11.6739C0.64635 11.6736 0.549449 11.6929 0.459157 11.7305C0.323207 11.7869 0.207022 11.8823 0.125294 12.0047C0.0435656 12.1271 -3.64687e-05 12.271 4.2287e-07 12.4182L0 17.2558Z" fill="#00798A"/>
<path d="M17.2558 4.22758e-07L12.4187 0C12.2715 3.12052e-05 12.1277 0.0436807 12.0053 0.125431C11.883 0.207182 11.7876 0.323362 11.7313 0.459284C11.675 0.595207 11.6602 0.74477 11.689 0.889064C11.7177 1.03336 11.7885 1.16591 11.8926 1.26995L13.5216 2.90147C13.5388 2.91868 13.5526 2.93915 13.5619 2.96168C13.5714 2.98422 13.5761 3.00838 13.5761 3.03279C13.5761 3.05719 13.5714 3.08135 13.5619 3.10388C13.5526 3.12642 13.5388 3.14688 13.5216 3.16409L10.2725 6.41225C10.1861 6.49862 10.1176 6.60115 10.0708 6.714C10.0241 6.82683 10 6.94778 10 7.06992C10 7.19206 10.0241 7.31301 10.0708 7.42585C10.1176 7.53869 10.1861 7.64122 10.2725 7.72759C10.3589 7.81396 10.4614 7.88246 10.5743 7.9292C10.6871 7.97594 10.8082 8 10.9303 8C11.0525 8 11.1735 7.97594 11.2864 7.9292C11.3993 7.88246 11.5018 7.81396 11.5882 7.72759L14.8373 4.47794C14.8545 4.46062 14.8751 4.44688 14.8977 4.4375C14.9203 4.42812 14.9445 4.4233 14.9689 4.4233C14.9934 4.4233 15.0176 4.42812 15.0403 4.4375C15.0629 4.44688 15.0834 4.46062 15.1007 4.47794L16.7296 6.10648C16.8338 6.21054 16.9665 6.28139 17.1109 6.31005C17.2552 6.33873 17.405 6.32393 17.5409 6.26755C17.6769 6.21115 17.7931 6.11571 17.8749 5.99328C17.9565 5.87084 18.0001 5.72694 18 5.57975V0.743968C18 0.546655 17.9216 0.357423 17.782 0.217903C17.6425 0.0783816 17.4532 4.40008e-07 17.2558 4.22758e-07Z" fill="#00798A"/>
</g>
</g>
</g>
</g>
<defs>
<clipPath id="clip0_2_5950">
<rect width="18" height="18" fill="white"/>
</clipPath>
<clipPath id="clip1_2_5950">
<rect width="18" height="18" fill="white"/>
</clipPath>
<clipPath id="clip2_2_5950">
<rect width="18" height="18" fill="white"/>
</clipPath>
</defs>
</svg>
