<svg width="20" height="20" viewBox="0 0 20 20" fill="none" xmlns="http://www.w3.org/2000/svg">
<g clip-path="url(#clip0_2_2391)">
<path d="M17.6364 1H2.36364C1.61052 1 1 1.61052 1 2.36364V17.6364C1 18.3895 1.61052 19 2.36364 19H17.6364C18.3895 19 19 18.3895 19 17.6364V2.36364C19 1.61052 18.3895 1 17.6364 1Z" stroke="#008294" stroke-width="2"/>
<path d="M9.5 11C10.3284 11 11 10.3284 11 9.5C11 8.67157 10.3284 8 9.5 8C8.67157 8 8 8.67157 8 9.5C8 10.3284 8.67157 11 9.5 11Z" fill="#008294"/>
<path d="M14.5 16C15.3284 16 16 15.3284 16 14.5C16 13.6716 15.3284 13 14.5 13C13.6716 13 13 13.6716 13 14.5C13 15.3284 13.6716 16 14.5 16Z" fill="#008294"/>
<path d="M5.5 7C6.32843 7 7 6.32843 7 5.5C7 4.67157 6.32843 4 5.5 4C4.67157 4 4 4.67157 4 5.5C4 6.32843 4.67157 7 5.5 7Z" fill="#008294"/>
</g>
<defs>
<clipPath id="clip0_2_2391">
<rect width="20" height="20" fill="white"/>
</clipPath>
</defs>
</svg>
