<svg width="19" height="18" viewBox="0 0 19 18" fill="none" xmlns="http://www.w3.org/2000/svg">
<path fill-rule="evenodd" clip-rule="evenodd" d="M11.5127 14.5861C12.2664 13.1351 12.7744 11.0329 12.7744 8.63485C12.7744 5.68637 10.8657 2.98749 9.48809 1.44916C9.46199 1.42001 9.44069 1.40796 9.42854 1.4026C9.41537 1.39679 9.40367 1.39478 9.39335 1.39478C9.38304 1.39478 9.37133 1.39679 9.35817 1.4026C9.34602 1.40796 9.32471 1.42001 9.29861 1.44916C7.92101 2.98749 6.01233 5.68637 6.01233 8.63485C6.01233 11.0329 6.52033 13.1351 7.27404 14.5861C8.07108 16.1206 8.9041 16.5386 9.39335 16.5386C9.88256 16.5386 10.7156 16.1206 11.5127 14.5861ZM14.2158 8.28115C14.793 8.1551 15.3627 8.07936 15.899 8.03768C16.2868 6.66169 16.2276 5.18238 16.0601 4.05001C16.0553 4.01838 16.0465 4.00351 16.0432 3.99842C16.0391 3.99239 16.0354 3.98947 16.0326 3.98778C16.0298 3.98609 16.0255 3.98412 16.0181 3.98319C16.0119 3.98239 15.9941 3.98111 15.9624 3.99061C15.202 4.21865 14.316 4.5559 13.4758 5.03286C13.2959 4.58891 13.0919 4.16249 12.8734 3.75677C13.8145 3.2392 14.7653 2.88868 15.5315 2.65895C16.4506 2.38333 17.3589 2.93595 17.4946 3.85335C17.6563 4.94638 17.7485 6.47353 17.4004 7.9989C17.4419 7.9999 17.4829 8.00105 17.5234 8.00234C18.4855 8.03311 19.1544 8.84258 18.9691 9.75188C18.631 11.4104 17.7912 13.978 15.7288 15.557C13.5805 17.2018 11.2285 18.0675 9.50002 17.9959C7.77148 18.0675 5.41951 17.2018 3.27114 15.557C1.20876 13.978 0.368969 11.4104 0.0309201 9.75188C-0.154428 8.84258 0.514439 8.03311 1.47661 8.00234C1.51707 8.00105 1.55809 7.9999 1.59964 7.9989C1.25159 6.47353 1.34369 4.94638 1.50541 3.85335C1.64116 2.93595 2.54942 2.38333 3.46856 2.65895C4.18991 2.87526 5.07508 3.19867 5.96168 3.66779C5.74087 4.07079 5.53392 4.49475 5.35043 4.93652C4.56281 4.51008 3.74581 4.20298 3.03758 3.99061C3.00589 3.98111 2.98815 3.98239 2.98189 3.98319C2.9745 3.98412 2.97019 3.98609 2.9674 3.98778C2.96462 3.98947 2.96092 3.99239 2.95688 3.99842C2.95345 4.00351 2.94463 4.01838 2.93995 4.05001C2.77241 5.18238 2.71318 6.66169 3.10094 8.03768C3.57172 8.07427 4.06822 8.13709 4.57291 8.23715C4.73159 4.93277 6.82571 2.07433 8.20109 0.53849C8.84405 -0.179496 9.94264 -0.179497 10.5856 0.53849C11.9671 2.08114 14.0737 4.95817 14.2158 8.28115ZM12.3885 15.9302C13.3669 14.4393 14.0385 12.2342 14.1906 9.7239C15.3356 9.42681 16.5181 9.36572 17.4753 9.3964C17.5085 9.39742 17.5247 9.40421 17.5304 9.407C17.5371 9.41016 17.5405 9.41342 17.5425 9.41593C17.5445 9.41835 17.547 9.42234 17.5488 9.42932C17.5503 9.43518 17.5536 9.45201 17.5471 9.48334C17.2265 11.0565 16.4721 13.2057 14.8269 14.4654C13.9998 15.0986 13.1681 15.5835 12.3885 15.9302ZM6.30815 15.7895C5.61794 15.4563 4.89382 15.0172 4.17312 14.4654C2.52793 13.2057 1.77346 11.0565 1.45282 9.48334C1.44643 9.45201 1.44967 9.43518 1.45117 9.42932C1.45293 9.42234 1.45543 9.41835 1.45748 9.41593C1.45953 9.41342 1.46294 9.41016 1.46959 9.407C1.47523 9.40421 1.49154 9.39742 1.52471 9.3964C2.42176 9.36767 3.51657 9.41946 4.59295 9.67052C4.73425 12.1251 5.37181 14.2914 6.30815 15.7895Z" fill="#31775A"/>
</svg>
