<svg width="17" height="18" viewBox="0 0 17 18" fill="none" xmlns="http://www.w3.org/2000/svg">
<path fill-rule="evenodd" clip-rule="evenodd" d="M4.52423 1.33942L5.47169 2.3431C5.5146 2.37406 5.55557 2.40936 5.59407 2.4491L6.96811 3.86758L8.10753 1.33941L4.52423 1.33942ZM2.82477 1.5022L4.06448 2.81548L0.0826891 11.3723C-0.0729295 11.7067 -0.00501695 12.1013 0.253725 12.3659L1.58774 13.7308C1.60801 13.7593 1.6308 13.7866 1.65613 13.8124L5.29842 17.5253C5.5961 17.8287 6.00544 18 6.43303 18H11.2444C11.5827 18 11.8631 17.7549 11.9136 17.4344C12.0121 17.3727 12.1007 17.2905 12.1726 17.1878L16.8377 10.5281C17.2231 9.97797 16.8806 9.24067 16.2458 9.13861L15.1597 5.84259C14.9649 5.25153 14.234 5.03319 13.7408 5.41872L9.31463 8.87805C9.22034 8.95172 9.14673 9.0361 9.09208 9.12673H6.19274C6.15718 9.12673 6.12237 9.12861 6.08835 9.13236L7.73291 5.45665C7.7617 5.39231 7.78229 5.32587 7.79493 5.25865C7.83953 5.20222 7.87823 5.1391 7.90958 5.06953L9.62813 1.25636C9.8943 0.665787 9.45706 -2.6788e-06 8.80315 0L3.48508 2.23005e-05C2.69536 2.58722e-05 2.28597 0.931408 2.82477 1.5022ZM10.2713 16.6606L5.47971 10.5678C5.47245 10.5586 5.46541 10.5493 5.45859 10.5399L3.85315 14.1281L6.27095 16.5928C6.31347 16.6361 6.37195 16.6606 6.43303 16.6606H10.2713ZM1.44252 11.6547L5.06335 3.87364L6.34996 5.2366L2.83911 13.0836L1.44252 11.6547ZM7.11588 10.4661L11.409 15.9253L15.2294 10.4715H9.8747C9.83947 10.4715 9.80497 10.4696 9.77137 10.4661H7.11588ZM14.817 9.12673H11.181L14.0724 6.86695L14.817 9.12673Z" fill="#FFAD43"/>
</svg>
