<svg width="15" height="17" viewBox="0 0 15 17" fill="none" xmlns="http://www.w3.org/2000/svg">
<path fill-rule="evenodd" clip-rule="evenodd" d="M10.0575 0.548021C10.7897 -0.182674 11.9768 -0.182674 12.7091 0.548021L14.0349 1.87106C14.7672 2.60175 14.7672 3.78644 14.0349 4.51714L12.7091 5.84017L8.73169 1.87106L10.0575 0.548021ZM8.06869 2.53256L12.0461 6.50168L4.3658 14.1659C4.18998 14.3413 3.95152 14.4399 3.70288 14.4399H0.582487C0.323597 14.4399 0.113737 14.2305 0.113737 13.9722V10.8583C0.113737 10.6101 0.212503 10.3722 0.388322 10.1968L8.06869 2.53256ZM0.703125 15.5967C0.314803 15.5967 0 15.9109 0 16.2984C0 16.6859 0.314803 17 0.703125 17H14.2969C14.6852 17 15 16.6859 15 16.2984C15 15.9109 14.6852 15.5967 14.2969 15.5967H0.703125Z" fill="#00798A"/>
</svg>
