<svg width="17" height="17" viewBox="0 0 17 17" fill="none" xmlns="http://www.w3.org/2000/svg">
<path fill-rule="evenodd" clip-rule="evenodd" d="M8.5 15.725C9.28455 15.725 10.2126 15.1883 11.0129 13.8544C11.247 13.4643 11.4581 13.0226 11.6391 12.5375H5.36086C5.5419 13.0226 5.753 13.4643 5.98706 13.8544C6.78741 15.1883 7.71545 15.725 8.5 15.725ZM4.9803 11.2625C4.78536 10.4175 4.675 9.4866 4.675 8.5C4.675 7.51341 4.78536 6.58249 4.9803 5.7375H12.0197C12.2147 6.58249 12.325 7.51341 12.325 8.5C12.325 9.4866 12.2147 10.4175 12.0197 11.2625H4.9803ZM12.989 12.5375C12.6982 13.4341 12.3134 14.2337 11.8567 14.8996C12.9187 14.3414 13.8248 13.5266 14.4925 12.5375H12.989ZM15.178 11.2625H13.3246C13.5031 10.3963 13.6 9.46704 13.6 8.5C13.6 7.53296 13.5031 6.60362 13.3246 5.7375H15.178C15.5305 6.58854 15.725 7.52156 15.725 8.5C15.725 9.47844 15.5305 10.4115 15.178 11.2625ZM3.67539 11.2625H1.82193C1.4695 10.4115 1.275 9.47844 1.275 8.5C1.275 7.52156 1.4695 6.58854 1.82193 5.7375H3.67539C3.4969 6.60362 3.4 7.53296 3.4 8.5C3.4 9.46704 3.4969 10.3963 3.67539 11.2625ZM2.50753 12.5375H4.01095C4.30188 13.4341 4.68666 14.2337 5.14337 14.8996C4.08131 14.3414 3.17521 13.5266 2.50753 12.5375ZM5.36086 4.4625H11.6391C11.4581 3.97742 11.247 3.53566 11.0129 3.14558C10.2126 1.81166 9.28455 1.275 8.5 1.275C7.71545 1.275 6.78741 1.81166 5.98706 3.14558C5.753 3.53566 5.5419 3.97742 5.36086 4.4625ZM12.989 4.4625H14.4925C13.8248 3.47346 12.9187 2.65861 11.8567 2.1004C12.3134 2.76635 12.6982 3.56592 12.989 4.4625ZM5.14337 2.1004C4.68666 2.76636 4.30187 3.56592 4.01095 4.4625H2.50752C3.17521 3.47346 4.08131 2.65861 5.14337 2.1004ZM8.5 0C13.1944 0 17 3.80558 17 8.5C17 13.1944 13.1944 17 8.5 17C3.80558 17 0 13.1944 0 8.5C0 3.80558 3.80558 0 8.5 0Z" fill="#212121"/>
</svg>
