<svg width="15" height="15" viewBox="0 0 15 15" fill="none" xmlns="http://www.w3.org/2000/svg">
<path fill-rule="evenodd" clip-rule="evenodd" d="M11.4085 6.33804C11.4085 9.13835 9.13835 11.4085 6.33804 11.4085C3.53771 11.4085 1.26761 9.13835 1.26761 6.33804C1.26761 3.53771 3.53771 1.26761 6.33804 1.26761C9.13835 1.26761 11.4085 3.53771 11.4085 6.33804ZM12.6761 6.33804C12.6761 9.83841 9.83841 12.6761 6.33804 12.6761C2.83763 12.6761 0 9.83841 0 6.33804C0 2.83763 2.83763 0 6.33804 0C9.83841 0 12.6761 2.83763 12.6761 6.33804ZM11.3829 12.2791L10.9494 11.8457C11.2738 11.5738 11.5738 11.2738 11.8457 10.9494L12.2791 11.3829L14.8144 13.9181C15.0619 14.1656 15.0619 14.5668 14.8144 14.8144C14.5668 15.0619 14.1656 15.0619 13.9181 14.8144L11.3829 12.2791Z" fill="white"/>
</svg>
