<svg width="22" height="22" viewBox="0 0 22 22" fill="none" xmlns="http://www.w3.org/2000/svg">
<path fill-rule="evenodd" clip-rule="evenodd" d="M15.169 9.76057C15.169 12.7476 12.7476 15.169 9.76057 15.169C6.77356 15.169 4.35211 12.7476 4.35211 9.76057C4.35211 6.77356 6.77356 4.35211 9.76057 4.35211C12.7476 4.35211 15.169 6.77356 15.169 9.76057ZM16.5211 9.76057C16.5211 13.4943 13.4943 16.5211 9.76057 16.5211C6.02681 16.5211 3 13.4943 3 9.76057C3 6.02681 6.02681 3 9.76057 3C13.4943 3 16.5211 6.02681 16.5211 9.76057ZM15.1417 16.0978L14.6794 15.6354C15.0254 15.3454 15.3454 15.0254 15.6354 14.6794L16.0978 15.1417L18.802 17.8459C19.066 18.11 19.066 18.538 18.802 18.802C18.538 19.066 18.11 19.066 17.8459 18.802L15.1417 16.0978Z" fill="#707070"/>
</svg>
