<svg width="40" height="40" viewBox="0 0 40 40" fill="none" xmlns="http://www.w3.org/2000/svg">
<path d="M15.57 0C24.1692 0 31.1401 6.97095 31.1401 15.57C31.1401 18.9318 30.0747 22.0446 28.2632 24.5895L40 36.3301L36.3301 40L24.5895 28.2632C22.0446 30.0747 18.9318 31.1401 15.57 31.1401C6.97095 31.1401 0 24.1692 0 15.57C0 6.97095 6.97095 0 15.57 0ZM15.57 5.19002C9.83732 5.19002 5.19002 9.83732 5.19002 15.57C5.19002 21.3028 9.83732 25.9501 15.57 25.9501C21.3028 25.9501 25.9501 21.3028 25.9501 15.57C25.9501 9.83732 21.3028 5.19002 15.57 5.19002Z" fill="#008294"/>
</svg>
