<svg width="18" height="19" viewBox="0 0 18 19" fill="none" xmlns="http://www.w3.org/2000/svg">
<path fill-rule="evenodd" clip-rule="evenodd" d="M0 17.0029C0.44431 17.2109 0.896774 17.4041 1.35677 17.5816C3.73181 18.4982 6.30767 19 8.99879 19C11.6909 19 14.2676 18.4978 16.6434 17.5806C17.1033 17.403 17.5557 17.2098 18 17.0017L17.3045 15.6879L16.39 13.9603L15.6318 12.5277L9.83185 1.57089L9.00032 0L8.16878 1.57089L0.69552 15.689L0 17.0029ZM9.00032 3.14178L14.2542 13.067C12.6034 13.6282 10.8368 13.9322 9.00045 13.9322C7.16398 13.9322 5.39735 13.6281 3.74655 13.0669L9.00032 3.14178ZM9.00045 15.5539C6.89026 15.5539 4.86417 15.1878 2.98026 14.5146L2.05729 16.2582C4.21908 17.0682 6.55675 17.5109 8.99879 17.5109C11.4418 17.5109 13.7804 17.0679 15.9428 16.2572L15.0204 14.5147C13.1365 15.1878 11.1106 15.5539 9.00045 15.5539ZM10.5657 11.782C11.1049 11.782 11.542 11.3376 11.542 10.7893C11.542 10.241 11.1049 9.79658 10.5657 9.79658C10.0265 9.79658 9.58942 10.241 9.58942 10.7893C9.58942 11.3376 10.0265 11.782 10.5657 11.782ZM8.30735 11.782C8.30735 12.3303 7.87026 12.7747 7.33108 12.7747C6.7919 12.7747 6.35481 12.3303 6.35481 11.782C6.35481 11.2337 6.7919 10.7893 7.33108 10.7893C7.87026 10.7893 8.30735 11.2337 8.30735 11.782ZM8.9311 8.80386C9.47028 8.80386 9.90741 8.35941 9.90741 7.81114C9.90741 7.26287 9.47028 6.81842 8.9311 6.81842C8.39193 6.81842 7.95483 7.26287 7.95483 7.81114C7.95483 8.35941 8.39193 8.80386 8.9311 8.80386Z" fill="#7A1D47"/>
</svg>
