<svg width="25" height="20" viewBox="0 0 25 20" fill="none" xmlns="http://www.w3.org/2000/svg">
<path d="M25 2.36755C24.0801 2.76912 23.0916 3.04053 22.0541 3.16259C23.1131 2.53769 23.9264 1.54821 24.3094 0.369247C23.3184 0.947802 22.2206 1.368 21.0524 1.59448C20.1166 0.613206 18.7838 0 17.3085 0C14.4759 0 12.1792 2.26062 12.1792 5.04891C12.1792 5.44463 12.2247 5.83 12.3121 6.19951C8.0494 5.98896 4.27009 3.97887 1.74037 0.924214C1.29887 1.66992 1.04594 2.53724 1.04594 3.46253C1.04594 5.21418 1.95151 6.75961 3.32775 7.66501C2.48692 7.6388 1.69611 7.41165 1.00451 7.03353C1.00415 7.0546 1.00415 7.07575 1.00415 7.097C1.00415 9.54336 2.77214 11.584 5.11851 12.0478C4.68809 12.1632 4.23497 12.2249 3.76715 12.2249C3.43666 12.2249 3.11532 12.1932 2.80222 12.1343C3.45486 14.1403 5.34904 15.6 7.59345 15.6407C5.83809 16.9949 3.6265 17.8021 1.22353 17.8021C0.809563 17.8021 0.401262 17.7782 0 17.7316C2.26984 19.1641 4.96589 20 7.8624 20C17.2965 20 22.4555 12.3064 22.4555 5.63438C22.4555 5.41546 22.4505 5.19772 22.4406 4.98122C23.4427 4.26936 24.3124 3.38008 25 2.36755Z" fill="#D9D9D9"/>
</svg>
