<svg width="23" height="23" viewBox="0 0 23 23" fill="none" xmlns="http://www.w3.org/2000/svg">
<path fill-rule="evenodd" clip-rule="evenodd" d="M20.8596 16.1464C20.8085 17.2678 20.6209 17.877 20.4653 18.2817C20.2561 18.8182 20.0065 19.2018 19.6019 19.6042C19.2018 20.0065 18.8182 20.2555 18.2817 20.4623C17.877 20.6204 17.2655 20.8085 16.1442 20.8619C14.9319 20.9153 14.5727 20.9267 11.4986 20.9267C8.4273 20.9267 8.06524 20.9153 6.85298 20.8619C5.73168 20.8085 5.12299 20.6204 4.71831 20.4623C4.17897 20.2555 3.79821 20.0065 3.39582 19.6042C2.99059 19.2018 2.7411 18.8182 2.53479 18.2817C2.37904 17.877 2.18868 17.2678 2.14034 16.1464C2.08126 14.9342 2.07043 14.5693 2.07043 11.5014C2.07043 8.4273 2.08126 8.06524 2.14034 6.85298C2.18868 5.73168 2.37904 5.12299 2.53479 4.7149C2.7411 4.17897 2.99059 3.79761 3.39582 3.39522C3.79821 2.99344 4.17897 2.74391 4.71831 2.53479C5.12299 2.37623 5.73168 2.19094 6.85298 2.13753C8.06524 2.08408 8.4273 2.07043 11.4986 2.07043C14.5727 2.07043 14.9319 2.08408 16.1442 2.13753C17.2655 2.19094 17.877 2.37623 18.2817 2.53479C18.8182 2.74391 19.2018 2.99344 19.6019 3.39522C20.0065 3.79761 20.2561 4.17897 20.4653 4.7149C20.6209 5.12299 20.8085 5.73168 20.8596 6.85298C20.9159 8.06524 20.9295 8.4273 20.9295 11.5014C20.9295 14.5693 20.9159 14.9342 20.8596 16.1464ZM22.9301 6.75865C22.8739 5.5333 22.6806 4.69615 22.3936 3.967C22.1015 3.21053 21.7098 2.56945 21.0688 1.92837C20.4305 1.29013 19.7895 0.898546 19.033 0.603022C18.301 0.318844 17.4667 0.123318 16.2408 0.0699071C15.0149 0.0107843 14.6233 0 11.4986 0C8.3767 0 7.98229 0.0107843 6.75639 0.0699071C5.5333 0.123318 4.69955 0.318844 3.96414 0.603022C3.21053 0.898546 2.56945 1.29013 1.93122 1.92837C1.29013 2.56945 0.898533 3.21053 0.603571 3.967C0.319393 4.69615 0.126168 5.5333 0.067045 6.75865C0.0136338 7.98455 0 8.3767 0 11.5014C0 14.6233 0.0136338 15.0149 0.067045 16.2408C0.126168 17.4639 0.319393 18.3005 0.603571 19.033C0.898533 19.7866 1.29013 20.4305 1.93122 21.0688C2.56945 21.707 3.21053 22.1015 3.96414 22.3964C4.69955 22.6806 5.5333 22.8739 6.75639 22.9301C7.98229 22.9863 8.3767 23 11.4986 23C14.6233 23 15.0149 22.9863 16.2408 22.9301C17.4667 22.8739 18.301 22.6806 19.033 22.3964C19.7895 22.1015 20.4305 21.707 21.0688 21.0688C21.7098 20.4305 22.1015 19.7866 22.3936 19.033C22.6806 18.3005 22.8739 17.4639 22.9301 16.2408C22.9863 15.0149 23 14.6233 23 11.5014C23 8.3767 22.9863 7.98455 22.9301 6.75865ZM19.0193 5.36163C19.0193 4.59724 18.3999 3.98002 17.6383 3.98002C16.8768 3.98002 16.2567 4.59724 16.2567 5.36163C16.2567 6.12321 16.8768 6.74043 17.6383 6.74043C18.3999 6.74043 19.0193 6.12321 19.0193 5.36163ZM7.66572 11.5014C7.66572 13.6173 9.3826 15.3314 11.4986 15.3314C13.6151 15.3314 15.3342 13.6173 15.3342 11.5014C15.3342 9.38208 13.6151 7.66575 11.4986 7.66575C9.3826 7.66575 7.66572 9.38208 7.66572 11.5014ZM5.59529 11.5014C5.59529 8.23974 8.23689 5.59246 11.4986 5.59246C14.7603 5.59246 17.4047 8.23974 17.4047 11.5014C17.4047 14.7603 14.7603 17.4047 11.4986 17.4047C8.23689 17.4047 5.59529 14.7603 5.59529 11.5014Z" fill="#D9D9D9"/>
</svg>
