<svg width="14" height="16" viewBox="0 0 14 16" fill="none" xmlns="http://www.w3.org/2000/svg">
<path d="M11.9093 3.20855C11.0435 2.64752 10.4216 1.7472 10.2259 0.699951C10.183 0.470191 10.1588 0.237772 10.1588 0H7.39806L7.39262 11.0256C7.34706 12.2598 6.32583 13.251 5.07676 13.251C4.68815 13.251 4.32356 13.1548 4.0019 12.9865C3.26211 12.5991 2.75818 11.8271 2.75818 10.9401C2.75818 9.66572 3.79819 8.62646 5.07948 8.62646C5.31806 8.62646 5.54848 8.66658 5.76298 8.73329V6.57735V5.92554C5.53786 5.89612 5.30991 5.87483 5.07948 5.87483C2.27838 5.87483 0 8.1456 0 10.9374C0 12.6498 0.857748 14.1673 2.16848 15.0837C2.99406 15.6607 3.99654 16 5.07948 16C7.88052 16 10.1588 13.7292 10.1588 10.9374V5.3458C11.2418 6.12049 12.5687 6.57735 14 6.57735V4.44014V3.82836C13.228 3.82569 12.5096 3.5986 11.9093 3.20855Z" fill="#D9D9D9"/>
</svg>
