<svg width="19" height="20" viewBox="0 0 19 20" fill="none" xmlns="http://www.w3.org/2000/svg">
<path fill-rule="evenodd" clip-rule="evenodd" d="M15.4772 9.47353H16.6907C17.9304 9.47353 18.9032 10.5526 18.7933 11.8058L18.1388 19.2679C18.1024 19.6823 17.7603 20 17.3502 20C16.8854 20 16.5206 19.5953 16.5618 19.1254L17.2164 11.6634C17.2439 11.3501 17.0007 11.0802 16.6907 11.0802H2.30714C1.99721 11.0802 1.75401 11.3501 1.7815 11.6634L2.43605 19.1254C2.47726 19.5953 2.11247 20 1.64758 20C1.23761 20 0.895475 19.6823 0.859122 19.2679L0.204571 11.8058C0.094644 10.5526 1.06744 9.47353 2.30714 9.47353H3.41831C3.31263 8.70861 3.25908 7.98728 3.25908 7.35201C3.25908 6.929 3.28282 6.51432 3.3299 6.11085H0.791579C0.354401 6.11085 0 5.75117 0 5.30748C0 4.86379 0.354401 4.50411 0.791579 4.50411H3.43017C3.50639 4.50411 3.58009 4.51504 3.64983 4.53545C4.44378 1.87269 6.43005 0 9.44775 0C12.4784 0 14.4688 1.8888 15.2558 4.56978C15.3521 4.52753 15.4583 4.50411 15.5698 4.50411H18.2084C18.6456 4.50411 19 4.86379 19 5.30748C19 5.75117 18.6456 6.11085 18.2084 6.11085H15.5698L15.5656 6.11084C15.6127 6.51432 15.6364 6.92899 15.6364 7.35201C15.6364 7.98728 15.5829 8.70861 15.4772 9.47353ZM13.8772 9.47353C13.994 8.69908 14.0533 7.97325 14.0533 7.35201C14.0533 5.59663 13.5788 4.13892 12.8054 3.1561C12.063 2.21283 10.9737 1.60674 9.44775 1.60674C7.92178 1.60674 6.83246 2.21283 6.09012 3.1561C5.31664 4.13892 4.84224 5.59663 4.84224 7.35201C4.84224 7.97325 4.90151 8.69908 5.01831 9.47353H13.8772ZM8.30076 6.08712C8.30076 6.38291 8.06449 6.6227 7.77304 6.6227C7.48158 6.6227 7.24532 6.38291 7.24532 6.08712C7.24532 5.79133 7.48158 5.55154 7.77304 5.55154C8.06449 5.55154 8.30076 5.79133 8.30076 6.08712ZM9.3562 6.08712C9.3562 6.9745 8.64739 7.69386 7.77304 7.69386C6.89868 7.69386 6.18988 6.9745 6.18988 6.08712C6.18988 5.19974 6.89868 4.48038 7.77304 4.48038C8.64739 4.48038 9.3562 5.19974 9.3562 6.08712ZM11.2269 6.6227C11.5183 6.6227 11.7546 6.38291 11.7546 6.08712C11.7546 5.79133 11.5183 5.55154 11.2269 5.55154C10.9355 5.55154 10.6992 5.79133 10.6992 6.08712C10.6992 6.38291 10.9355 6.6227 11.2269 6.6227ZM11.2269 7.69386C12.1012 7.69386 12.8101 6.9745 12.8101 6.08712C12.8101 5.19974 12.1012 4.48038 11.2269 4.48038C10.3526 4.48038 9.64376 5.19974 9.64376 6.08712C9.64376 6.9745 10.3526 7.69386 11.2269 7.69386ZM5.39727 15.3461V14.275H8.56358V15.3461H5.39727ZM3.81411 13.2038C3.81411 12.9081 4.05038 12.6682 4.34183 12.6682H9.61902C9.91047 12.6682 10.1467 12.9081 10.1467 13.2038V16.4173C10.1467 16.713 9.91047 16.9529 9.61902 16.9529H4.34183C4.05038 16.9529 3.81411 16.713 3.81411 16.4173V13.2038ZM10.962 13.6523C10.962 13.2086 11.3164 12.8489 11.7536 12.8489H14.3922C14.8293 12.8489 15.1837 13.2086 15.1837 13.6523C15.1837 14.096 14.8293 14.4557 14.3922 14.4557H11.7536C11.3164 14.4557 10.962 14.096 10.962 13.6523ZM11.7536 15.0373C11.3164 15.0373 10.962 15.397 10.962 15.8407C10.962 16.2844 11.3164 16.6441 11.7536 16.6441H14.3922C14.8293 16.6441 15.1837 16.2844 15.1837 15.8407C15.1837 15.397 14.8293 15.0373 14.3922 15.0373H11.7536Z" fill="#7A1D47"/>
</svg>
