<svg width="20" height="20" viewBox="0 0 20 20" fill="none" xmlns="http://www.w3.org/2000/svg">
<path fill-rule="evenodd" clip-rule="evenodd" d="M5.42363 3.11076L3.45733 5.52685C4.27961 5.95133 4.63325 7.04303 4.0368 7.88568L2.46684 10.1037H8.07954L6.50958 7.88568C5.86148 6.97006 6.33515 5.7604 7.31289 5.43219L5.42363 3.11076ZM9.20492 5.34697L5.82004 1.18779C5.61626 0.937404 5.231 0.937404 5.02723 1.18779L1.64234 5.34697L1.63305 5.35839L1.4757 5.55174L1.0793 6.03882C0.898603 6.26085 0.947047 6.55581 1.12855 6.72481C1.17222 6.76547 1.22359 6.79884 1.28133 6.82215C1.34001 6.84585 1.40527 6.85915 1.4757 6.85915H2.10747H2.35826H2.37307H2.55746H2.70275C2.78515 6.85915 2.83342 6.95101 2.78612 7.01782L2.70275 7.13561L1.96856 8.17288L1.82809 8.37132L0.601872 10.1037L0.599286 10.1074L0.509969 10.2336L0.0930749 10.8226C-0.143373 11.1567 0.0979804 11.6159 0.509969 11.6159H1.23637H1.39199H1.3965H4.53052V14.3477C4.14341 14.3093 3.75072 14.2897 3.35341 14.2897C2.63781 14.2897 1.93721 14.3533 1.25707 14.4752C0.820062 14.5534 0.572521 15.0023 0.710762 15.4202C0.835568 15.7974 1.23225 16.0129 1.62747 15.946C2.18792 15.8513 2.76449 15.8019 3.35341 15.8019C6.60983 15.8019 9.51057 17.3168 11.3734 19.6779C11.5855 19.9466 11.942 20.0679 12.2693 19.9618C12.7527 19.805 12.9572 19.2379 12.6479 18.838C11.9545 17.9411 11.1315 17.1475 10.2068 16.4845C12.0609 14.5429 14.6868 13.3315 17.5986 13.3315C18.0957 13.3315 18.5845 13.3668 19.0627 13.435C19.5442 13.5038 20 13.15 20 12.6683C20 12.316 19.7508 12.0094 19.3991 11.9557C18.8122 11.8659 18.2109 11.8193 17.5986 11.8193C17.2082 11.8193 16.8223 11.8382 16.4417 11.8752V9.69541H18.1547H18.1592H18.3148H19.0412C19.4531 9.69541 19.6946 9.23612 19.4581 8.90206L19.0412 8.31308L18.9519 8.18689L18.9493 8.18323L18.3321 7.31136L18.1917 7.11291L17.4575 6.07565L17.3742 5.95785C17.3268 5.89104 17.3751 5.79918 17.4575 5.79918H17.5838H17.5986H17.6028H17.8494H18.4812C18.6384 5.79918 18.7699 5.73288 18.86 5.63264C18.889 5.60033 18.9137 5.56449 18.9336 5.52622C19.0199 5.36022 19.0154 5.1483 18.8776 4.97886L18.4812 4.49178L18.3238 4.29842L18.3145 4.28701L15.8363 1.24194C15.6326 0.991551 15.2473 0.991551 15.0435 1.24194L12.5654 4.28701L12.556 4.29842L12.3987 4.49178L12.0023 4.97886C11.9324 5.06471 11.8968 5.16146 11.8899 5.25762C11.8891 5.26894 11.8887 5.28024 11.8887 5.29151C11.888 5.55256 12.0955 5.79918 12.3987 5.79918H13.0305H13.1759C13.2102 5.79918 13.2387 5.81515 13.2567 5.83862L13.2601 5.84336C13.2823 5.87589 13.2855 5.92073 13.2593 5.95785L13.1759 6.07565L12.4417 7.11291L12.3987 7.17363L12.3027 7.30928L11.6841 8.18323L11.6815 8.18689L11.5922 8.31308L11.1753 8.90206C10.9389 9.23612 11.1802 9.69541 11.5922 9.69541H12.3186H12.4742H12.4787H14.9145V12.1256C12.6025 12.663 10.5549 13.8794 8.99788 15.5507C8.96103 15.5903 8.92973 15.6315 8.90368 15.6738C8.01759 15.2001 7.06274 14.8363 6.05777 14.6008V11.6159H9.14989H9.1544H9.31001H10.0365C10.4484 11.6159 10.6897 11.1567 10.4533 10.8226L10.0365 10.2336L9.94707 10.1074L9.94452 10.1037L8.71829 8.37132L8.57783 8.17288L7.84363 7.13561L7.76026 7.01782C7.71297 6.95101 7.76124 6.85915 7.84363 6.85915H7.98892H8.4742H8.48901H8.73979H9.26818H9.37156C9.41721 6.85915 9.46069 6.85356 9.50161 6.84318C9.84413 6.75626 10.0076 6.33338 9.76796 6.03882L9.37156 5.55174L9.2142 5.35839L9.20492 5.34697ZM14.2224 4.66095L15.44 3.1649L16.5649 4.54718C15.8428 5.01699 15.5615 6.03187 16.1234 6.82572L17.0843 8.18323H13.549L14.51 6.82572C15.0299 6.09101 14.8277 5.16699 14.2224 4.66095Z" fill="#31775A"/>
</svg>
